<?xml version="1.0" encoding="utf-8"?>
<!-- Generator: Adobe Illustrator 27.4.0, SVG Export Plug-In . SVG Version: 6.00 Build 0)  -->
<svg version="1.1" id="Layer_1" xmlns="http://www.w3.org/2000/svg" xmlns:xlink="http://www.w3.org/1999/xlink" x="0px" y="0px"
	 viewBox="0 0 752 364.1" style="enable-background:new 0 0 752 364.1;" xml:space="preserve">
<style type="text/css">
	.st0{opacity:0.5;}
	.st1{fill:#1F8ED6;}
	.st2{opacity:0.7;}
	.st3{fill:#50B7ED;}
	.st4{fill:#B6FBFF;}
	.st5{fill:#FFFFFF;}
</style>
<g id="Layer_2_00000016765436877401025400000012268522092613394569_">
	<g id="Layer_1-2">
		<g class="st0">
			<polygon class="st1" points="0,364 0.1,364.1 0,364.1 			"/>
			<polygon class="st1" points="752,135.8 752,351.2 2,351.2 2,90.8 7,89.8 9.8,89.2 142.4,62.3 146,61.5 147.6,61.2 150.2,60.7 
				150.2,60.7 151.1,60.5 151.7,60.8 154,61.9 157,63.4 160.2,64.9 219.2,93.5 222,94.8 227.2,97.3 231.1,96.2 233.9,95.3 
				329.8,66.5 332.5,65.6 341.4,63 345.2,64.2 348.1,65.2 519.8,120.8 522.5,121.7 526.8,123.1 534.9,119.9 537.6,118.9 669.9,66.6 
				672.8,65.4 679.1,63 687.2,71.1 746.3,130.1 748.3,132.1 			"/>
			<g class="st2">
				<polygon class="st3" points="0,364 0.1,364.1 0,364.1 				"/>
				<path class="st3" d="M752,213.3v137.9H2V211.8l4-2l2.6-1.3l132.9-65.9l2.6-1.3l6.9-3.4l3.2,1.6l0,0l2.5,1.3L292,208.9l2.6,1.3
					l7.6,3.8l3.6-1.8l2.6-1.3l135-66.4l2.6-1.3l6.1-3l4.2,2.1l2.5,1.3l0,0l134.6,66.7l2.5,1.3l7.2,3.6l5.1-2l2.7-1.1l54.5-21.2l0,0
					l2.8-1.1l7.4-2.9l3.4,1.2l2.7,0.9l62.7,21.5l2.7,0.9L752,213.3z"/>
			</g>
			<polygon class="st4" points="752,291.2 752,351.2 14.3,351.2 72.5,297 74.6,295.1 80.5,289.6 86.2,291.5 88.9,292.4 139.4,309.2 
				146.8,311.7 154.9,309.4 157.7,308.6 215.5,292.1 218.3,291.3 224.2,289.6 230.8,293.3 233.3,294.8 292.3,328.5 294.8,329.9 
				301.6,333.8 306.9,330 309.3,328.3 369.3,285.4 371.6,283.8 379,278.5 383.2,281.6 385.7,283.4 447.5,327.5 449.9,329.2 
				456.3,333.8 461.2,328.9 463.2,326.9 515.5,274.6 517.6,272.5 522.6,267.5 529.4,270.4 532.1,271.5 667.7,329.6 670.4,330.8 
				677.4,333.8 682.9,330.6 685.4,329.2 744.5,295.4 747,294 			"/>
			<path class="st5" d="M752,210.8v3.4l-0.2,0.4c-1.8-0.6-3.5-1.3-5.3-1.9l-2.7-0.9c-7.4-2.6-14.9-5.1-22.2-7.5
				c-13.4-4.4-27.2-9-40.6-14.1c-0.9-0.3-1.8-0.7-2.7-1l-1.2-0.5c-2.2,1-4.4,2-6.6,3l-3.2,1.4c-10.6,4.6-21.2,8.6-31.6,12.5
				c-8.2,3.1-16.6,6.3-24.9,9.7c-1,0.4-2,0.8-3,1.3l-0.3,0.1l0,0h-0.4c-2.8,0-6.8-1.3-9.4-2.6l-2.3-1.1l-2.6-1.3
				c-14.9-7.4-29.7-14.8-44.2-22c-29.7-14.7-60.3-29.9-90.4-45.3c-0.9-0.4-1.7-0.9-2.6-1.3l-2.1-1L448,145l-3,1.5
				c-32,16.6-65.1,32.5-97.1,47.9c-12.8,6.2-26,12.5-39.1,18.9l-2.8,1.4l-1.4,0.7l-0.8,0.4l-0.8-0.4l-8.8-4.5l-2.5-1.3
				c-21.5-10.9-43.1-21.8-64.2-32.3c-23.3-11.6-47.3-23.6-71-35.8c-0.9-0.4-1.7-0.9-2.5-1.3l-1.2-0.6l-6.1,3.1
				c-1,0.5-2.1,1.1-3.1,1.6l0,0c-35.4,18-71.2,35.7-105.9,52.8c-9.2,4.6-18.5,9.1-27.7,13.7c-0.9,0.4-1.7,0.8-2.6,1.3l-4.7,2.3
				L2,213.3v-2.7l3.1-1.6l2.7-1.4c9.3-4.6,18.7-9.3,28.1-13.9c34.4-17,69.8-34.4,104.8-52.3c0.9-0.4,1.7-0.9,2.5-1.3
				c2.9-1.4,5.7-2.9,8.6-4.4l0.8-0.4l0.8,0.4l1.4,0.7l2.7,1.4c23.8,12.2,48,24.2,71.4,35.9c21.3,10.7,43.3,21.6,65,32.7l3,1.5
				l6.7,3.4l1.4-0.7l2.6-1.2c12.9-6.3,25.9-12.5,38.6-18.6c31.7-15.3,64.5-31,96.3-47.4l2.5-1.3c2.5-1.3,5-2.6,7.6-3.9l0.8-0.4
				l0.9,0.4l2.6,1.3l2.7,1.4c30.1,15.4,60.8,30.6,90.6,45.4c14.5,7.2,29.3,14.5,44.2,22c0.9,0.4,1.8,0.9,2.6,1.3l2.2,1.1
				c2.3,1.2,4.8,1.9,7.4,2.2l1.2-0.5l2.7-1.1c8-3.3,16-6.3,23.9-9.3c10-3.8,20.2-7.7,30.4-12l2.6-1.1c3-1.3,5.9-2.6,8.8-4l0.7-0.3
				l0.8,0.3l1.5,0.6l2.8,1.1c13.4,5.2,27.2,9.7,40.7,14.2c7.5,2.5,15.1,5,22.7,7.6l0,0l2.9,1L752,210.8z"/>
			<path class="st5" d="M752,135.2v1.8l-4.2-4.2l-2-2l-59-59l-2.1-2.1l-6-6l-6,2.3l-2.9,1.1l-132.2,52.2l-2.7,1l-8.5,3.4l-0.2-0.1
				l-3.8-1.2l-2.8-0.9L348.1,65.9l-2.8-0.9l-4.2-1.3l-8.5,2.6l-2.7,0.8l-95.6,28.8l-2.8,0.8l-4.6,1.4l-5.5-2.6l-2.6-1.3l-58.5-28.3
				l-2.9-1.4l-3.7-1.8l-2.2-1.1l-0.7-0.3h-0.1l-2.6,0.5l-2.4,0.5l-3.4,0.7L10,89.7l-2.8,0.6L2,91.4v-1.2l4.7-0.9l2.9-0.6l133.1-27.1
				l4.1-0.8l0,0l0.4-0.1l2.6-0.5l1-0.2L151,60l1,0.5l2.2,1.1l2.6,1.2l0,0l3.4,1.6l59.4,28.8l2.8,1.4l4.6,2.1l3.7-1.1l2.9-0.9l0,0
				l96.1-28.9l2.9-0.8l8.5-2.6l0.2,0.1l3.7,1.2l0,0l3.1,1l0,0l171.8,55.7l2.7,0.9l4,1.3l2.7-1.1l0.2-0.1l5.2-2.1l2.6-1l132.6-52.4
				l3.2-1.2l5.9-2.4l0.3,0.3l8.1,8.1l59.2,59.2l2,2L752,135.2z"/>
			<path class="st5" d="M752,133.5v5.2l-4.9-4.9l-2.1-2.1l-59-59l-2-2l-5.6-5.6l-5.6,2.2l-2.7,1.1l-132,52.2l-2.7,1.1l-8.7,3.4
				l-0.6-0.2l-3.2-1l-3.1-1L348,67.1l-2.7-0.9l-4.2-1.3l-8.2,2.5l-2.7,0.8l-95.5,28.7l-2.7,0.8l-5.2,1.6l-6.1-3l-2.6-1.2l-57.9-28
				l-2.7-1.3l-4.5-2.2l-2.4-1.1l-1.8,0.4l0,0l-3.7,0.8l-3,0.6L10.3,90.9l-2.8,0.6L2,92.6v-3.8l3.8-0.8l3.1-0.6l134.6-27.4l3-0.6
				l2.6-0.5l1.9-0.4l0.6,0.3l0.7,0.4l0,0l0.4,0.2l2.2,1.1l0.2,0.1l4.8,2.3l60.8,29.4l3.2,1.5l3.2,1.6l2.5-0.8l3.2-1l97-29.2l3.1-0.9
				l0,0l8.3-2.5l0.5,0.2l2.6,0.8l3.5,1.2l172.3,55.9l2.7,0.9l3.7,1.2l2-0.8l2.2-0.9l3.4-1.3l2.7-1.1l133.4-52.7l3.8-1.5l5.3-2.1
				l0.9,0.8L752,133.5z"/>
			<path class="st5" d="M752,127.5v18.3c-5.1-0.5-8.8-5-8.3-10.1c0.2-1.8,0.9-3.6,2.1-5c0.2-0.2,0.4-0.4,0.6-0.6
				c0.1-0.1,0.2-0.2,0.3-0.3c0.3-0.3,0.6-0.5,1-0.8C748.9,128.2,750.4,127.7,752,127.5z"/>
			<path class="st1" d="M752,130.4V143c-3.2-0.4-5.6-3.1-5.6-6.3c0-1,0.2-2,0.7-2.9c0.2-0.4,0.4-0.7,0.7-1.1
				c0.2-0.2,0.4-0.4,0.5-0.6c0.1-0.1,0.2-0.2,0.3-0.3c0.3-0.3,0.6-0.5,1-0.7C750.4,130.7,751.2,130.5,752,130.4z"/>
			<path class="st5" d="M528.9,131.2c-5.1,0-9.2-4.1-9.2-9.2s4.1-9.2,9.2-9.2c5.1,0,9.2,4.1,9.2,9.2
				C538.1,127,534,131.2,528.9,131.2z"/>
			<circle class="st1" cx="528.9" cy="121.9" r="6.4"/>
			<path class="st5" d="M679.1,75.9c-5.1,0-9.2-4.1-9.2-9.2s4.1-9.2,9.2-9.2c5.1,0,9.2,4.1,9.2,9.2
				C688.3,71.8,684.2,75.9,679.1,75.9z"/>
			<circle class="st1" cx="679.1" cy="66.7" r="6.4"/>
			<path class="st5" d="M225.9,109.1c-5.1,0-9.2-4.1-9.2-9.2s4.1-9.2,9.2-9.2c5.1,0,9.2,4.1,9.2,9.2
				C235.1,104.9,231,109,225.9,109.1z"/>
			<circle class="st1" cx="225.9" cy="99.8" r="6.4"/>
			<path class="st5" d="M338.9,74.7c-5.1,0-9.2-4.1-9.2-9.2c0-5.1,4.1-9.2,9.2-9.2c5.1,0,9.2,4.1,9.2,9.2v0
				C348.1,70.5,344,74.7,338.9,74.7z"/>
			<circle class="st1" cx="338.9" cy="65.5" r="6.4"/>
			<path class="st5" d="M10.4,92.5c0,4.8-3.6,8.8-8.4,9.2V83.3c2.8,0.2,5.4,1.8,6.9,4.2c0.2,0.4,0.4,0.7,0.6,1.1
				c0.1,0.2,0.2,0.4,0.3,0.6c0.1,0.2,0.1,0.3,0.2,0.5c0.1,0.4,0.2,0.8,0.3,1.2C10.4,91.4,10.4,92,10.4,92.5z"/>
			<path class="st1" d="M7.6,92.5c0,3.2-2.4,5.9-5.6,6.3V86.2c1.5,0.2,2.8,0.9,3.8,1.9c0.3,0.3,0.6,0.7,0.8,1.1
				c0.1,0.2,0.2,0.4,0.3,0.6c0.1,0.2,0.2,0.3,0.2,0.5c0.2,0.4,0.3,0.8,0.3,1.2C7.6,91.8,7.6,92.1,7.6,92.5z"/>
			<path class="st5" d="M151,74.7c-5.1,0-9.2-4.1-9.2-9.2s4.1-9.2,9.2-9.2c5.1,0,9.2,4.1,9.2,9.2C160.2,70.5,156.1,74.7,151,74.7z"
				/>
			<circle class="st1" cx="151" cy="65.5" r="6.4"/>
			<path class="st5" d="M672.9,195c-5.1,0-9.2-4.1-9.2-9.2s4.1-9.2,9.2-9.2c5.1,0,9.2,4.1,9.2,9.2C682.1,190.9,678,195,672.9,195z"
				/>
			<circle class="st3" cx="672.9" cy="185.8" r="6.4"/>
			<path class="st5" d="M752,204.9v18.3c-5.1-0.4-8.8-4.9-8.4-10c0-0.5,0.1-1,0.2-1.5c0.1-0.4,0.2-0.8,0.4-1.2
				c0.3-0.8,0.7-1.5,1.2-2.2l0,0C747.1,206.4,749.4,205.1,752,204.9z"/>
			<path class="st3" d="M752,207.7v12.6c-3.2-0.4-5.6-3.1-5.6-6.3c0-0.4,0-0.9,0.1-1.3c0.1-0.4,0.2-0.8,0.4-1.2
				c0.3-0.8,0.8-1.5,1.5-2.1C749.4,208.5,750.6,207.9,752,207.7z"/>
			<path class="st5" d="M601.7,223.3c-5.1,0-9.2-4.1-9.2-9.2s4.1-9.2,9.2-9.2c5.1,0,9.2,4.1,9.2,9.2
				C610.9,219.1,606.8,223.3,601.7,223.3z"/>
			<circle class="st3" cx="601.7" cy="214.1" r="6.4"/>
			<path class="st5" d="M10.4,214c0,4.8-3.6,8.8-8.4,9.2v-18.3c2.2,0.2,4.3,1.2,5.9,2.8c0.2,0.3,0.5,0.6,0.7,0.8
				c0.5,0.7,0.9,1.5,1.2,2.3C10.2,211.9,10.4,212.9,10.4,214z"/>
			<path class="st3" d="M7.6,214c0,3.2-2.4,6-5.6,6.4v-12.7c1.1,0.1,2.2,0.6,3.1,1.3c0.3,0.2,0.6,0.5,0.8,0.8
				C7,210.9,7.6,212.4,7.6,214z"/>
			<path class="st5" d="M450.7,148.4c-5.1,0-9.2-4.1-9.2-9.2c0-5.1,4.1-9.2,9.2-9.2c5.1,0,9.2,4.1,9.2,9.2l0,0
				C459.9,144.2,455.7,148.3,450.7,148.4z"/>
			<circle class="st3" cx="450.7" cy="139.1" r="6.4"/>
			<path class="st5" d="M299.6,223.3c-5.1,0-9.2-4.1-9.2-9.2c0-5.1,4.1-9.2,9.2-9.2c5.1,0,9.2,4.1,9.2,9.2l0,0
				C308.8,219.1,304.7,223.3,299.6,223.3z"/>
			<circle class="st3" cx="299.6" cy="214.1" r="6.4"/>
			<path class="st5" d="M148.6,145.9c-5.1,0-9.2-4.1-9.2-9.2s4.1-9.2,9.2-9.2c5.1,0,9.2,4.1,9.2,9.2
				C157.8,141.8,153.6,145.9,148.6,145.9z"/>
			<circle class="st3" cx="148.6" cy="136.7" r="6.4"/>
			<polygon class="st5" points="746.8,293.7 752,290.8 752,292.2 747.4,294.8 744.9,296.2 685.7,330.1 683,331.6 678,334.5 
				677.7,334.4 670.3,331.2 667.6,330 532,271.9 529.3,270.8 523.4,268.2 457,334.6 449.7,329.4 447.4,327.7 385.6,283.6 
				383.2,281.9 379.6,279.3 372.2,284.6 372.2,284.6 369.9,286.2 309.6,329.2 307.1,331 302.2,334.5 301.9,334.3 294.7,330.2 
				292.2,328.8 233.2,295 230.7,293.6 224.7,290.2 218.4,292.1 215.6,292.9 157.8,309.4 154.9,310.2 147.4,312.3 147.3,312.3 
				142.2,310.6 139.4,309.6 88.9,292.8 88.9,292.8 86.1,291.9 81.3,290.3 75.2,295.9 73.1,297.8 15,351.2 13.2,351.2 72.3,296.8 
				74.4,294.9 81,288.9 81.3,289 86.1,290.6 89,291.5 139.5,308.4 142.2,309.3 147.5,311 154.9,308.9 157.6,308.1 215.5,291.6 
				218.4,290.8 224.9,288.9 231,292.4 233.6,293.9 292.7,327.6 295.2,329.1 302.2,333.1 306.8,329.7 309.2,328 369.1,285.2 
				371.5,283.6 379.6,277.8 379.9,278 383.4,280.5 386,282.4 448,326.7 450.3,328.3 456.9,333 461.1,328.8 463.1,326.7 515.4,274.4 
				517.5,272.4 523.1,266.8 523.5,266.9 529.5,269.5 532.2,270.7 668,328.8 670.6,330 677.9,333.1 682.8,330.3 682.8,330.3 
				685.3,328.9 744.3,295.2 			"/>
			<polygon class="st5" points="0,364 0.1,364.1 0,364.1 			"/>
			<polygon class="st5" points="746.5,292.5 752,289.4 752,293.6 748.2,295.8 745.6,297.2 685.8,331.4 682.9,333.1 678.1,335.8 
				677.3,335.5 670.3,332.5 667.5,331.3 531.5,273 528.9,271.9 523.7,269.7 457.1,336.2 456.3,335.6 449.3,330.6 446.9,328.9 
				385.1,284.7 382.8,283.1 379.6,280.8 373.1,285.4 370.7,287.1 309.9,330.5 307.2,332.5 302.3,336 301.3,335.4 294.5,331.5 
				291.8,330 232.6,296.1 232.6,296.1 230.1,294.7 224.6,291.6 218.6,293.3 215.9,294 157.7,310.7 154.7,311.5 147.4,313.6 
				146.9,313.4 142.6,312 139.4,311 88.6,294 85.9,293.1 81.6,291.7 76.2,296.7 74,298.6 16.8,351.2 11.4,351.2 71.7,295.8 
				73.9,293.8 80.7,287.5 85.7,289.2 139.7,307.2 142.4,308.1 147.5,309.8 154.6,307.7 157.3,307 215.6,290.3 218.6,289.4 
				218.6,289.4 225.1,287.6 231.1,291 233.8,292.6 293.3,326.6 295.8,328 302.1,331.6 306.3,328.6 308.6,327 368.6,284.1 
				370.9,282.4 379.6,276.3 380.6,277 383.2,278.8 386.2,281 448.8,325.7 451.1,327.4 456.7,331.4 460.4,327.8 462.4,325.7 
				522.8,265.3 524,265.8 529.4,268.1 532.3,269.4 668.5,327.7 671.1,328.8 677.9,331.7 682.4,329.2 684.8,327.8 743.9,294 			"/>
			<path class="st5" d="M752,282.2v18.3c-2.5-0.2-4.7-1.4-6.3-3.3c-0.3-0.3-0.5-0.7-0.7-1c-0.2-0.3-0.3-0.5-0.4-0.8
				c0-0.1-0.1-0.2-0.1-0.3c-0.2-0.4-0.3-0.8-0.4-1.2c-0.2-0.8-0.4-1.7-0.4-2.6C743.6,286.6,747.2,282.7,752,282.2z"/>
			<path class="st4" d="M752,285.1v12.6c-1.5-0.2-2.8-0.9-3.8-1.9c-0.3-0.3-0.5-0.6-0.8-1c-0.2-0.3-0.3-0.5-0.4-0.8
				c-0.1-0.1-0.1-0.2-0.1-0.3c-0.3-0.7-0.4-1.5-0.4-2.3C746.5,288.2,748.8,285.5,752,285.1z"/>
			<path class="st5" d="M676.6,341.2c-5.1,0-9.2-4.1-9.2-9.2s4.1-9.2,9.2-9.2c5.1,0,9.2,4.1,9.2,9.2
				C685.8,337,681.7,341.2,676.6,341.2z"/>
			<circle class="st4" cx="676.6" cy="332" r="6.4"/>
			<path class="st5" d="M523.1,278.5c-5.1,0-9.2-4.1-9.2-9.2s4.1-9.2,9.2-9.2c5.1,0,9.2,4.1,9.2,9.2
				C532.3,274.4,528.2,278.5,523.1,278.5z"/>
			<circle class="st4" cx="523.1" cy="269.3" r="6.4"/>
			<path class="st5" d="M455.6,341.2c-5.1,0-9.2-4.1-9.2-9.2c0-5.1,4.1-9.2,9.2-9.2c5.1,0,9.2,4.1,9.2,9.2c0,0,0,0,0,0
				C464.8,337,460.7,341.2,455.6,341.2z"/>
			<circle class="st4" cx="455.6" cy="332" r="6.4"/>
			<path class="st5" d="M377,289.6c-5.1,0-9.2-4.1-9.2-9.2c0-5.1,4.1-9.2,9.2-9.2c5.1,0,9.2,4.1,9.2,9.2c0,0,0,0,0,0
				C386.2,285.5,382.1,289.6,377,289.6z"/>
			<circle class="st4" cx="377" cy="280.4" r="6.4"/>
			<path class="st5" d="M300.8,341.2c-5.1,0-9.2-4.1-9.2-9.2c0-5.1,4.1-9.2,9.2-9.2c5.1,0,9.2,4.1,9.2,9.2c0,0,0,0,0,0
				C310,337,305.9,341.2,300.8,341.2z"/>
			<circle class="st4" cx="300.8" cy="332" r="6.4"/>
			<path class="st5" d="M224.7,300.6c-5.1,0-9.2-4.1-9.2-9.2c0-5.1,4.1-9.2,9.2-9.2c5.1,0,9.2,4.1,9.2,9.2l0,0
				C233.9,296.5,229.8,300.6,224.7,300.6z"/>
			<circle class="st4" cx="224.7" cy="291.4" r="6.4"/>
			<path class="st5" d="M148.6,319c-5.1,0-9.2-4.1-9.2-9.2c0-5.1,4.1-9.2,9.2-9.2c5.1,0,9.2,4.1,9.2,9.2l0,0
				C157.8,314.9,153.6,319,148.6,319z"/>
			<circle class="st4" cx="148.6" cy="309.8" r="6.4"/>
			<path class="st5" d="M79.8,300.6c-5.1,0-9.2-4.1-9.2-9.2s4.1-9.2,9.2-9.2c5.1,0,9.2,4.1,9.2,9.2l0,0
				C89,296.5,84.9,300.6,79.8,300.6z"/>
			<circle class="st4" cx="79.8" cy="291.4" r="6.4"/>
			<polygon class="st5" points="0.1,364.1 0,364.1 0,364 			"/>
			<polygon class="st4" points="0.1,364.1 0,364.1 0,364 			"/>
			<path class="st4" d="M399.1,233.3c0,12.2-22.1,44.2-22.1,44.2s-22.1-32-22.1-44.2c0.3-12.2,10.4-21.9,22.6-21.6
				C389.3,211.9,398.8,221.5,399.1,233.3L399.1,233.3z"/>
			<path class="st5" d="M377,273.2c-6.9-10.4-19.6-31.4-19.6-39.8c0-10.9,8.8-19.6,19.7-19.6c10.8,0,19.6,8.8,19.6,19.6
				C396.6,241.8,383.9,262.7,377,273.2z"/>
			<path d="M367.7,233.7v-3.5h-0.9v3.5h-3.3v0.9h3.3v3.5h0.9v-3.5h3.3v-0.9H367.7z"/>
			<path d="M378.4,228.5l-2.1,1.1l0.2,1l1.7-0.9l0,0v8.4h1.2v-9.6L378.4,228.5z"/>
			<path d="M386.2,228.4c-2,0-3.3,1.8-3.3,5s1.3,4.9,3.2,4.9c2.1,0,3.3-1.8,3.3-5.1C389.4,230.1,388.2,228.4,386.2,228.4z
				 M386.1,237.2c-1.2,0-1.9-1.4-1.9-3.9s0.8-4,2-4c1.3,0,2,1.6,2,3.9S387.5,237.2,386.1,237.2z"/>
			<path class="st1" d="M173.1,22.1c0,12.2-22.1,44.2-22.1,44.2s-22.1-32-22.1-44.2c-0.3-12.2,9.4-22.3,21.6-22.6
				s22.3,9.4,22.6,21.6C173.1,21.5,173.1,21.8,173.1,22.1L173.1,22.1z"/>
			<path class="st5" d="M151,61.9c-6.9-10.4-19.6-31.4-19.6-39.8c0-10.9,8.8-19.7,19.6-19.7c10.9,0,19.7,8.8,19.7,19.7
				C170.7,30.6,157.9,51.5,151,61.9z"/>
			<path d="M141.8,22.5V19h-0.9v3.5h-3.3v0.9h3.3v3.5h0.9v-3.5h3.3v-0.9L141.8,22.5z"/>
			<path d="M152.4,17.3l-2.1,1.1l0.2,1l1.7-0.9l0,0v8.4h1.2v-9.6H152.4z"/>
			<path d="M160.2,17.1c-1.9,0-3.3,1.8-3.3,5s1.3,4.9,3.2,4.9c2.1,0,3.3-1.8,3.3-5C163.4,18.9,162.3,17.1,160.2,17.1z M160.2,26
				c-1.2,0-1.9-1.4-1.9-3.9s0.8-4,2-4c1.3,0,1.9,1.5,1.9,3.9S161.5,26,160.2,26L160.2,26z"/>
			<path class="st1" d="M551.4,77.4c0,12.2-22.1,44.2-22.1,44.2s-22.1-32-22.1-44.2c-0.3-12.2,9.4-22.3,21.6-22.6
				c12.2-0.3,22.3,9.4,22.6,21.6C551.4,76.7,551.4,77.1,551.4,77.4L551.4,77.4z"/>
			<path class="st5" d="M529.3,117.2c-6.9-10.4-19.6-31.4-19.6-39.8c0-10.9,8.8-19.7,19.6-19.7c10.9,0,19.7,8.8,19.7,19.7
				C548.9,85.8,536.2,106.8,529.3,117.2z"/>
			<path d="M522,77.8v1h3.6v-1H522z"/>
			<path d="M535.1,78.7v-6h-1.4l-4.3,6.1v0.8h4.5v2.6h1.2v-2.6h1.3v-1L535.1,78.7z M533.9,75.5v3.2h-3.1l0,0l2.3-3.3
				c0.3-0.4,0.5-0.8,0.8-1.4l0,0C533.9,74.5,533.9,75,533.9,75.5L533.9,75.5z"/>
		</g>
	</g>
</g>
</svg>
