<?xml version="1.0" encoding="utf-8"?>
<!-- Generator: Adobe Illustrator 27.4.0, SVG Export Plug-In . SVG Version: 6.00 Build 0)  -->
<svg version="1.1" id="Layer_1" xmlns="http://www.w3.org/2000/svg" xmlns:xlink="http://www.w3.org/1999/xlink" x="0px" y="0px"
	 viewBox="0 0 448 68" style="enable-background:new 0 0 448 68;" xml:space="preserve">
<style type="text/css">
	.st0{fill:#50B7ED;}
	.st1{fill-rule:evenodd;clip-rule:evenodd;fill:#50B7ED;}
</style>
<g>
	<path class="st0" d="M277.1,5.5v14.4h-22.6v8h16.3v13.7h-16.3v21.9h-18.1V5.5H277.1z"/>
	<path class="st0" d="M418,5.5c6,0,11.3,1.2,15.8,3.7c4.6,2.5,8.1,5.9,10.5,10.3c2.4,4.4,3.7,9.4,3.7,14.9c0,5.5-1.2,10.5-3.7,14.9
		c-2.4,4.4-5.9,7.9-10.5,10.5c-4.5,2.5-9.8,3.8-15.8,3.8h-24V5.5H418z M416.4,47.3c4.1,0,7.3-1.1,9.7-3.4c2.4-2.2,3.6-5.4,3.6-9.6
		s-1.2-7.4-3.6-9.6c-2.4-2.2-5.6-3.4-9.7-3.4h-4.3v25.9H416.4z"/>
	<path class="st1" d="M337.2,17.1c3.6,4.9,5.8,10.9,5.8,17.4s-2.1,12.6-5.8,17.4c5.3,7.1,13.6,11.6,23.1,11.6
		c15.9,0,28.8-13,28.8-29s-12.9-29-28.8-29C350.8,5.5,342.4,10,337.2,17.1z M360.2,49c8,0,14.4-6.5,14.4-14.5S368.2,20,360.2,20
		c-8,0-14.4,6.5-14.4,14.5S352.3,49,360.2,49z"/>
	<path class="st0" d="M281.8,34.5c0,16,12.9,29,28.8,29c15.9,0,28.8-13,28.8-29s-12.9-29-28.8-29C294.7,5.5,281.8,18.5,281.8,34.5z
		 M325.1,34.5c0,8-6.5,14.5-14.4,14.5c-8,0-14.4-6.5-14.4-14.5S302.7,20,310.6,20C318.6,20,325.1,26.5,325.1,34.5z"/>
	<path class="st0" d="M117.3,62.8H99.8L81.1,34.5v28.4H63.5V6.4h17.6l18.6,28.8V6.4h17.6V62.8z"/>
	<path class="st0" d="M161.3,54.3h-18.7l-2.8,8.5h-18.5l20.5-56.4h20.3l20.4,56.4H164L161.3,54.3z M157,41l-5.1-15.7L146.8,41H157z"
		/>
	<path class="st0" d="M232.5,25.8c0,3.6-0.8,6.8-2.5,9.7c-1.6,2.9-4.1,5.2-7.3,6.9c-3.2,1.7-7,2.5-11.6,2.5h-7v17.9h-17.6V6.4h24.6
		c6.9,0,12.1,1.8,15.8,5.3C230.6,15.2,232.5,19.9,232.5,25.8z M209.2,31c3.6,0,5.5-1.7,5.5-5.2c0-3.5-1.8-5.2-5.5-5.2h-5V31H209.2z"
		/>
	<path class="st0" d="M1,24.1c0-0.6,0-1.1,0.1-1.7h0C1.5,12.9,9.3,5.4,18.8,5.4h38.6c-0.5,9.4-8.3,16.9-17.8,16.9h-0.3
		c-0.3-0.3-0.6-0.6-0.8-0.9c-0.5-0.7-1-1.3-1.3-1.5c0,0-0.1-0.1-0.1-0.1c0,0-0.1-0.1-0.1-0.1C36.7,19.4,35,18,31.7,18H18.8
		c-0.7,0-1.2,0.5-1.2,1.2c0,0.7,0.5,1.2,1.2,1.2h11.5c0.8,0,1.4,0.6,1.4,1.4c0,0.8-0.6,1.4-1.4,1.4H18.8c-0.7,0-1.2,0.5-1.2,1.2
		c0,0.7,0.5,1.2,1.2,1.2h11.5c0.8,0,1.4,0.6,1.4,1.4c0,0.8-0.6,1.4-1.4,1.4H18.8c-0.7,0-1.2,0.5-1.2,1.2s0.5,1.2,1.2,1.2h12.9
		c3.3,0,5-1.4,5.4-1.8c0,0,0.1-0.1,0.1-0.1c0,0,0.1-0.1,0.1-0.1c0.1-0.1,0.2-0.2,0.4-0.4h2.4c9.6,0,17.4,7.8,17.4,17.5
		c0,9.7-7.8,17.5-17.4,17.5h-39c0.9-9,8.5-16.1,17.7-16.1h1.8c0,0.2,0,0.3,0.1,0.4c0.3,1.2,1.3,2.2,2.5,2.5c0.3,0.1,0.7,0.1,1.1,0.1
		v2.4c0,0.2,0,0.4,0,0.6c0,0.2,0.1,0.4,0.2,0.7c0.2,0.3,0.6,0.4,0.9,0.4c0.3,0,0.5-0.1,0.7-0.2c0.1-0.1,0.3-0.2,0.5-0.4l2.3-2.7
		c0.5-0.4,0.6-0.5,0.8-0.6c0.2-0.1,0.3-0.2,0.5-0.2c0.2,0,0.4,0,1,0H37c0.8,0,1.4,0,1.9,0c0.5,0,1-0.1,1.4-0.3
		c0.7-0.3,1.2-0.9,1.5-1.5c0.2-0.4,0.3-0.9,0.3-1.4c0-0.5,0-1.1,0-1.8c0-0.7,0-1.3,0-1.8c0-0.5-0.1-1-0.3-1.4
		c-0.3-0.7-0.9-1.2-1.5-1.5c-0.4-0.2-0.9-0.3-1.4-0.3c-0.5,0-1.1,0-1.9,0H25.7c-0.8,0-1.4,0-1.9,0c-0.5,0-1,0.1-1.4,0.3
		c-0.7,0.3-1.2,0.9-1.5,1.5c-0.1,0.2-0.1,0.3-0.2,0.5h-1.2C9.3,42.7,1,34.4,1,24.1z"/>
	<path class="st1" d="M26,45.3c0-0.7,0.5-1.2,1.2-1.2c0.6,0,1.2,0.5,1.2,1.2c0,0.7-0.5,1.2-1.2,1.2C26.5,46.4,26,45.9,26,45.3z
		 M30.2,45.3c0-0.7,0.5-1.2,1.2-1.2c0.6,0,1.2,0.5,1.2,1.2c0,0.7-0.5,1.2-1.2,1.2C30.7,46.4,30.2,45.9,30.2,45.3z M34.4,45.3
		c0-0.7,0.5-1.2,1.2-1.2c0.6,0,1.2,0.5,1.2,1.2c0,0.7-0.5,1.2-1.2,1.2C34.9,46.4,34.4,45.9,34.4,45.3z"/>
</g>
</svg>
